<svg xmlns="http://www.w3.org/2000/svg" width="1600" height="1000" viewBox="0 0 1600 1000" role="img" aria-label="Demo post media">
  <defs>
    <linearGradient id="bg" x1="0" x2="1" y1="0" y2="1">
      <stop offset="0" stop-color="#0b1220" />
      <stop offset="1" stop-color="#111827" />
    </linearGradient>
    <linearGradient id="accent" x1="0" x2="1" y1="1" y2="0">
      <stop offset="0" stop-color="#ec4899" stop-opacity="0.9" />
      <stop offset="1" stop-color="#22d3ee" stop-opacity="0.8" />
    </linearGradient>
    <filter id="softGlow" x="-20%" y="-20%" width="140%" height="140%">
      <feGaussianBlur stdDeviation="18" result="blur" />
      <feColorMatrix in="blur" type="matrix" values="1 0 0 0 0  0 1 0 0 0  0 0 1 0 0  0 0 0 0.65 0" />
      <feMerge>
        <feMergeNode />
        <feMergeNode in="SourceGraphic" />
      </feMerge>
    </filter>
  </defs>

  <rect width="1600" height="1000" fill="url(#bg)" />

  <g opacity="0.7">
    <circle cx="320" cy="280" r="220" fill="url(#accent)" filter="url(#softGlow)" />
    <circle cx="1290" cy="720" r="260" fill="url(#accent)" filter="url(#softGlow)" opacity="0.55" />
  </g>

  <g opacity="0.9">
    <rect x="120" y="120" width="640" height="90" rx="24" fill="#0f172a" stroke="#334155" />
    <rect x="120" y="240" width="980" height="44" rx="18" fill="#0f172a" stroke="#334155" opacity="0.95" />
    <rect x="120" y="310" width="820" height="44" rx="18" fill="#0f172a" stroke="#334155" opacity="0.85" />
  </g>

  <g opacity="0.55">
    <path d="M120 820c160-180 360-260 600-240 220 18 340 120 520 180 120 40 220 40 360-8v168H120V820z" fill="#0f172a" />
  </g>
</svg>
